<svg width="614" height="609" viewBox="0 0 614 609" fill="none" xmlns="http://www.w3.org/2000/svg">
<path fill-rule="evenodd" clip-rule="evenodd" d="M493.008 -265.028C572.156 -243.176 605.599 -152.776 677.605 -113.9C767.225 -65.514 910.321 -101.538 959.01 -13.4323C1005.88 71.3837 923.212 170.643 883.653 258.956C848.222 338.053 807.428 412.232 742.254 470.463C670.051 534.974 590.1 619.224 493.008 607.983C395.855 596.734 364.266 470.934 283.218 417.316C197.319 360.488 51.3746 381.35 9.87696 288.363C-30.9569 196.863 65.7318 103.76 101.567 10.2763C135.295 -77.7109 135.245 -187.266 213.224 -242.11C291.127 -296.9 400.676 -290.52 493.008 -265.028Z" fill="#9D829A" fill-opacity="0.35"/>
</svg>
