<svg xmlns="http://www.w3.org/2000/svg" xmlns:xlink="http://www.w3.org/1999/xlink" width="500" zoomAndPan="magnify" viewBox="0 0 375 374.999991" height="500" preserveAspectRatio="xMidYMid meet" version="1.0"><defs><clipPath id="e1939a0686"><path d="M 56 10.425781 L 252 10.425781 L 252 369.964844 L 56 369.964844 Z M 56 10.425781 " clip-rule="nonzero"/></clipPath><clipPath id="16b868a536"><path d="M 98.148438 254.835938 C 116.609375 242.53125 120.070312 241.574219 123.917969 241.164062 C 127.890625 240.753906 132.507812 240.890625 136.222656 241.710938 C 139.429688 242.257812 141.863281 243.078125 144.8125 244.855469 C 149.171875 247.453125 158.789062 254.152344 158.53125 257.296875 C 158.273438 259.484375 151.609375 263.039062 150.070312 262.21875 C 148.53125 261.261719 149.171875 254.5625 149.8125 250.871094 C 150.453125 247.042969 152.503906 243.078125 154.300781 239.660156 C 155.96875 236.242188 158.273438 233.097656 160.324219 230.363281 C 162.25 227.902344 163.914062 225.855469 166.09375 223.804688 C 168.660156 221.480469 171.992188 218.882812 175.199219 217.515625 C 178.402344 216.148438 181.351562 215.191406 185.324219 215.328125 C 190.964844 215.328125 199.425781 217.105469 205.710938 219.976562 C 211.734375 222.847656 218.144531 228.039062 222.246094 232.550781 C 225.453125 235.96875 227.375 239.933594 228.914062 243.488281 C 230.324219 246.496094 230.964844 248.683594 231.476562 252.511719 C 232.503906 258.9375 232.886719 270.28125 232.503906 278.484375 C 232.117188 286.140625 231.09375 293.25 229.554688 300.359375 C 227.886719 307.46875 225.195312 315.394531 222.761719 321.136719 C 220.964844 325.648438 219.941406 328.382812 216.992188 332.484375 C 212.246094 339.183594 202.503906 349.847656 195.453125 355.585938 C 189.683594 360.097656 183.402344 363.242188 178.53125 365.292969 C 175.070312 366.796875 173.019531 367.34375 169.429688 368.027344 C 163.914062 368.984375 156.09375 370.078125 148.917969 369.394531 C 140.582031 368.710938 131.222656 366.386719 122.378906 362.96875 C 112.507812 359.277344 99.816406 352.035156 92.636719 347.386719 C 88.148438 344.515625 85.585938 342.328125 82.507812 339.320312 C 79.429688 336.175781 76.738281 333.578125 73.917969 329.203125 C 70.074219 323.460938 65.585938 314.4375 62.765625 306.375 C 59.945312 298.308594 58.148438 289.695312 57.125 280.945312 C 56.226562 272.058594 56.355469 262.082031 57.125 253.332031 C 57.894531 245.128906 59.433594 237.335938 61.609375 229.953125 C 63.664062 222.847656 65.96875 216.832031 69.945312 209.585938 C 75.199219 199.742188 83.789062 187.4375 91.738281 177.460938 C 99.558594 167.753906 108.917969 157.910156 116.992188 150.664062 C 123.53125 144.921875 128.789062 140.824219 135.96875 136.585938 C 143.917969 131.9375 153.789062 127.152344 163.148438 124.554688 C 172.378906 121.957031 187.890625 117.71875 191.351562 121.136719 C 193.53125 123.1875 193.273438 131.390625 191.351562 132.484375 C 187.890625 134.671875 171.09375 121.273438 163.273438 115.121094 C 156.738281 109.925781 150.710938 103.910156 146.609375 98.855469 C 143.660156 95.164062 141.738281 91.882812 140.070312 88.328125 C 138.660156 85.320312 137.761719 82.722656 136.992188 79.441406 C 136.222656 76.023438 135.582031 71.921875 135.453125 68.230469 C 135.453125 64.539062 135.710938 60.847656 136.609375 57.160156 C 137.507812 53.332031 139.300781 48.957031 141.222656 45.402344 C 143.148438 41.847656 145.328125 38.976562 148.148438 35.695312 C 151.609375 31.730469 156.992188 26.808594 161.222656 23.800781 C 164.683594 21.203125 167.25 19.5625 171.609375 17.785156 C 177.761719 15.191406 187.890625 12.046875 195.453125 11.089844 C 202.121094 10.269531 209.171875 10.542969 214.554688 11.5 C 218.65625 12.183594 221.605469 13.414062 224.9375 15.191406 C 228.273438 16.828125 231.734375 19.289062 234.425781 21.75 C 236.992188 23.800781 238.914062 25.851562 240.964844 28.585938 C 243.273438 31.59375 245.578125 35.421875 247.246094 39.113281 C 248.785156 42.667969 250.066406 46.222656 250.835938 50.050781 C 251.605469 54.152344 252.117188 58.253906 251.863281 63.035156 C 251.605469 69.050781 250.195312 76.84375 248.398438 82.996094 C 246.734375 88.738281 244.683594 96.121094 241.605469 98.855469 C 239.425781 100.765625 236.222656 101.3125 234.042969 100.902344 C 232.246094 100.628906 230.582031 99.265625 229.554688 97.898438 C 228.527344 96.53125 227.632812 94.480469 227.632812 92.566406 C 227.761719 90.378906 229.171875 86.550781 231.09375 85.183594 C 232.886719 83.679688 236.605469 83.132812 238.785156 83.953125 C 240.964844 84.773438 243.527344 87.78125 244.042969 90.105469 C 244.683594 92.429688 243.785156 96.394531 242.246094 98.171875 C 240.707031 100.085938 237.246094 101.449219 234.9375 101.175781 C 232.632812 100.765625 229.683594 98.308594 228.527344 96.257812 C 227.632812 94.753906 227.632812 93.113281 227.761719 90.652344 C 228.273438 86.003906 233.144531 76.707031 234.296875 70.691406 C 235.195312 65.90625 235.582031 61.53125 235.195312 57.433594 C 234.8125 53.742188 233.785156 50.324219 232.246094 47.042969 C 230.835938 43.898438 228.914062 40.753906 226.605469 38.15625 C 224.296875 35.558594 221.476562 33.234375 218.53125 31.59375 C 215.707031 29.953125 213.015625 28.996094 209.425781 28.449219 C 204.425781 27.902344 196.992188 28.3125 190.964844 29.679688 C 184.941406 31.046875 177.761719 34.328125 173.144531 36.789062 C 169.941406 38.566406 168.144531 39.660156 165.582031 42.394531 C 161.734375 46.085938 155.710938 53.46875 153.660156 58.523438 C 152.121094 62.214844 152.121094 65.632812 152.25 69.1875 C 152.378906 72.742188 153.019531 76.296875 154.8125 79.988281 C 157.25 85.183594 162.121094 90.925781 167.890625 96.394531 C 175.710938 103.910156 193.53125 112.386719 199.425781 118.949219 C 202.503906 122.367188 205.195312 125.238281 204.941406 128.382812 C 204.554688 132.074219 199.941406 137.40625 195.835938 139.457031 C 191.09375 141.78125 183.53125 138.910156 177.25 139.867188 C 170.582031 140.824219 163.402344 142.738281 156.992188 145.332031 C 150.839844 147.792969 145.070312 151.210938 139.6875 154.902344 C 134.171875 158.59375 129.171875 162.96875 124.046875 167.617188 C 118.789062 172.539062 113.917969 177.460938 108.53125 184.023438 C 101.738281 192.085938 92.25 204.527344 86.996094 213.277344 C 83.40625 219.703125 81.226562 224.761719 79.046875 230.773438 C 76.996094 236.789062 75.457031 242.667969 74.429688 249.230469 C 73.277344 256.613281 72.894531 265.226562 73.277344 273.015625 C 73.664062 280.398438 75.074219 288.738281 76.484375 294.617188 C 77.507812 298.71875 78.40625 301.179688 80.199219 305.007812 C 82.378906 310.066406 86.226562 317.445312 89.558594 321.820312 C 92.125 325.101562 94.175781 326.878906 97.507812 329.476562 C 101.867188 332.894531 108.40625 336.722656 114.171875 339.867188 C 120.070312 343.011719 127.378906 346.292969 132.761719 348.070312 C 136.609375 349.4375 139.042969 350.257812 143.273438 350.804688 C 149.300781 351.488281 159.558594 351.625 165.453125 350.667969 C 169.429688 350.121094 172.25 349.027344 175.453125 347.660156 C 178.785156 346.019531 181.734375 344.242188 185.195312 341.507812 C 190.070312 337.679688 197.246094 330.296875 200.964844 325.648438 C 203.273438 322.640625 204.425781 321 206.09375 317.445312 C 208.53125 312.25 211.476562 304.871094 213.144531 297.078125 C 215.195312 287.234375 216.351562 270.964844 216.09375 262.628906 C 215.835938 257.84375 215.324219 254.835938 214.042969 251.417969 C 212.886719 248.410156 211.09375 245.8125 208.914062 243.488281 C 206.734375 241.027344 203.65625 238.976562 200.835938 237.335938 C 198.144531 235.832031 195.195312 234.738281 192.375 234.054688 C 189.425781 233.371094 186.222656 232.6875 183.402344 233.371094 C 180.710938 234.191406 178.019531 236.242188 175.710938 238.429688 C 173.144531 240.890625 170.839844 244.445312 169.171875 247.726562 C 167.503906 250.871094 166.09375 254.152344 165.324219 257.570312 C 164.558594 260.988281 165.839844 265.363281 164.429688 268.371094 C 163.273438 271.101562 160.453125 274.382812 157.761719 274.929688 C 154.683594 275.476562 149.558594 271.785156 146.480469 269.464844 C 143.789062 267.550781 142.378906 264.132812 139.8125 262.355469 C 137.378906 260.578125 134.300781 259.347656 131.480469 258.9375 C 128.402344 258.527344 124.941406 258.9375 121.992188 259.757812 C 119.300781 260.578125 116.867188 261.945312 114.429688 263.585938 C 111.867188 265.226562 109.6875 268.644531 107.25 269.601562 C 105.328125 270.554688 103.148438 270.964844 101.355469 270.28125 C 99.300781 269.464844 96.480469 266.730469 95.710938 264.679688 C 94.945312 262.765625 95.199219 260.03125 95.839844 258.390625 C 96.226562 256.886719 98.148438 254.835938 98.148438 254.835938 " clip-rule="nonzero"/></clipPath><clipPath id="71f7cc67d3"><path d="M 221.328125 120.664062 L 332.777344 120.664062 L 332.777344 363.394531 L 221.328125 363.394531 Z M 221.328125 120.664062 " clip-rule="nonzero"/></clipPath><clipPath id="702ed05b3c"><path d="M 234.425781 121.0625 C 255.453125 131.820312 265.324219 140.273438 272.375 146.546875 C 278.527344 151.796875 284.554688 157.433594 288.65625 162.171875 C 291.605469 165.628906 292.5 167.164062 295.449219 171.773438 C 302.371094 182.277344 321.859375 211.214844 327.5 224.789062 C 330.578125 232.347656 331.21875 236.957031 332.117188 243.617188 C 332.882812 250.53125 332.628906 257.574219 332.242188 265.257812 C 331.859375 273.707031 331.21875 284.335938 329.808594 292.40625 C 328.652344 299.0625 327.5 304.570312 325.191406 310.460938 C 322.628906 316.863281 317.757812 324.546875 314.550781 329.03125 C 312.5 331.976562 311.601562 333.253906 309.039062 335.816406 C 304.808594 339.785156 296.605469 345.933594 290.320312 349.648438 C 284.554688 353.105469 277.5 356.050781 272.628906 357.714844 C 269.296875 358.867188 267.886719 358.996094 264.039062 359.636719 C 255.964844 360.789062 232.632812 364.5 226.734375 362.453125 C 224.425781 361.683594 223.527344 360.402344 222.761719 358.996094 C 221.863281 357.457031 221.351562 355.539062 221.734375 353.746094 C 222.246094 351.695312 224.425781 348.496094 226.351562 347.34375 C 227.761719 346.445312 229.8125 346.1875 231.605469 346.703125 C 233.65625 347.214844 236.605469 349.648438 237.632812 351.566406 C 238.527344 353.105469 238.65625 355.152344 238.144531 356.816406 C 237.375 358.867188 234.8125 361.8125 232.886719 362.707031 C 231.222656 363.476562 229.171875 363.347656 227.503906 362.835938 C 225.964844 362.324219 224.171875 361.042969 223.273438 359.761719 C 222.246094 358.355469 221.476562 356.433594 221.734375 354.640625 C 221.863281 352.464844 223.65625 349.519531 225.453125 347.855469 C 227.375 346.1875 229.425781 345.675781 232.886719 344.910156 C 239.554688 343.371094 256.605469 344.140625 264.039062 342.730469 C 268.398438 341.835938 270.449219 341.195312 274.167969 339.402344 C 279.425781 336.96875 287.375 331.847656 291.859375 328.515625 C 294.808594 326.339844 296.476562 325.1875 298.785156 322.371094 C 302.371094 318.273438 307.246094 309.949219 309.550781 304.699219 C 311.21875 300.855469 311.859375 298.550781 312.757812 294.070312 C 314.167969 286.769531 315.191406 273.324219 315.578125 264.617188 C 315.960938 257.574219 316.347656 251.9375 315.578125 245.664062 C 314.679688 239.390625 313.65625 234.523438 310.449219 227.097656 C 304.808594 214.417969 288.269531 189.445312 279.808594 178.179688 C 274.9375 171.773438 272.375 168.828125 267.117188 163.835938 C 260.324219 157.304688 249.296875 147.957031 241.605469 143.089844 C 236.222656 139.503906 229.554688 137.839844 226.734375 135.664062 C 225.324219 134.636719 224.683594 133.871094 224.171875 132.71875 C 223.527344 131.566406 223.015625 130.15625 223.144531 128.746094 C 223.273438 127.082031 224.171875 124.648438 225.324219 123.242188 C 226.09375 122.214844 227.246094 121.449219 228.527344 121.0625 C 230.195312 120.550781 234.425781 121.0625 234.425781 121.0625 " clip-rule="nonzero"/></clipPath><clipPath id="4763fbce77"><path d="M 45.269531 4.804688 L 241.453125 4.804688 L 241.453125 364 L 45.269531 364 Z M 45.269531 4.804688 " clip-rule="nonzero"/></clipPath><clipPath id="e9df6219e7"><path d="M 87.417969 249.214844 C 105.878906 236.910156 109.339844 235.953125 113.183594 235.542969 C 117.160156 235.132812 121.773438 235.269531 125.492188 236.089844 C 128.695312 236.636719 131.132812 237.457031 134.082031 239.234375 C 138.441406 241.832031 148.054688 248.53125 147.800781 251.675781 C 147.542969 253.863281 140.875 257.417969 139.335938 256.597656 C 137.800781 255.640625 138.441406 248.941406 139.082031 245.25 C 139.722656 241.421875 141.773438 237.457031 143.570312 234.039062 C 145.234375 230.625 147.542969 227.480469 149.59375 224.746094 C 151.515625 222.285156 153.183594 220.234375 155.363281 218.183594 C 157.925781 215.859375 161.261719 213.261719 164.464844 211.894531 C 167.671875 210.527344 170.617188 209.570312 174.59375 209.707031 C 180.234375 209.707031 188.695312 211.484375 194.976562 214.355469 C 201.003906 217.226562 207.414062 222.421875 211.515625 226.933594 C 214.71875 230.351562 216.644531 234.3125 218.179688 237.867188 C 219.589844 240.875 220.234375 243.0625 220.746094 246.890625 C 221.769531 253.316406 222.15625 264.664062 221.769531 272.867188 C 221.386719 280.519531 220.359375 287.628906 218.824219 294.738281 C 217.15625 301.847656 214.464844 309.777344 212.027344 315.519531 C 210.234375 320.027344 209.207031 322.761719 206.257812 326.863281 C 201.515625 333.5625 191.773438 344.226562 184.722656 349.96875 C 178.953125 354.480469 172.671875 357.625 167.796875 359.671875 C 164.335938 361.175781 162.285156 361.722656 158.695312 362.40625 C 153.183594 363.363281 145.363281 364.457031 138.183594 363.773438 C 129.851562 363.089844 120.492188 360.765625 111.644531 357.351562 C 101.773438 353.660156 89.082031 346.414062 81.902344 341.765625 C 77.417969 338.894531 74.851562 336.707031 71.777344 333.699219 C 68.699219 330.554688 66.007812 327.957031 63.1875 323.582031 C 59.339844 317.839844 54.851562 308.820312 52.03125 300.753906 C 49.210938 292.6875 47.417969 284.074219 46.390625 275.324219 C 45.496094 266.441406 45.621094 256.460938 46.390625 247.710938 C 47.160156 239.507812 48.699219 231.71875 50.878906 224.335938 C 52.929688 217.226562 55.238281 211.210938 59.210938 203.964844 C 64.46875 194.121094 73.058594 181.820312 81.007812 171.839844 C 88.828125 162.132812 98.183594 152.289062 106.261719 145.046875 C 112.800781 139.304688 118.054688 135.203125 125.234375 130.964844 C 133.183594 126.316406 143.054688 121.53125 152.414062 118.933594 C 161.644531 116.335938 177.15625 112.097656 180.617188 115.515625 C 182.796875 117.566406 182.542969 125.769531 180.617188 126.863281 C 177.15625 129.050781 160.363281 115.652344 152.542969 109.5 C 146.003906 104.308594 139.980469 98.292969 135.875 93.234375 C 132.925781 89.542969 131.003906 86.261719 129.339844 82.707031 C 127.929688 79.699219 127.03125 77.101562 126.261719 73.820312 C 125.492188 70.402344 124.851562 66.300781 124.722656 62.613281 C 124.722656 58.921875 124.980469 55.230469 125.875 51.539062 C 126.773438 47.710938 128.570312 43.335938 130.492188 39.78125 C 132.414062 36.226562 134.59375 33.355469 137.414062 30.074219 C 140.875 26.109375 146.261719 21.1875 150.492188 18.183594 C 153.953125 15.585938 156.515625 13.945312 160.875 12.167969 C 167.027344 9.570312 177.15625 6.425781 184.722656 5.46875 C 191.386719 4.648438 198.4375 4.921875 203.824219 5.878906 C 207.925781 6.5625 210.875 7.792969 214.207031 9.570312 C 217.539062 11.210938 221 13.671875 223.695312 16.132812 C 226.257812 18.183594 228.179688 20.234375 230.230469 22.964844 C 232.539062 25.972656 234.847656 29.800781 236.515625 33.492188 C 238.050781 37.046875 239.335938 40.601562 240.105469 44.429688 C 240.871094 48.53125 241.386719 52.632812 241.128906 57.417969 C 240.871094 63.429688 239.460938 71.222656 237.667969 77.375 C 236 83.117188 233.949219 90.5 230.875 93.234375 C 228.695312 95.148438 225.488281 95.695312 223.308594 95.285156 C 221.515625 95.011719 219.847656 93.644531 218.824219 92.277344 C 217.796875 90.910156 216.898438 88.859375 216.898438 86.945312 C 217.027344 84.757812 218.4375 80.929688 220.359375 79.5625 C 222.15625 78.058594 225.875 77.511719 228.054688 78.332031 C 230.230469 79.152344 232.796875 82.160156 233.308594 84.484375 C 233.949219 86.808594 233.054688 90.773438 231.515625 92.550781 C 229.976562 94.464844 226.515625 95.832031 224.207031 95.558594 C 221.898438 95.148438 218.949219 92.6875 217.796875 90.636719 C 216.898438 89.132812 216.898438 87.492188 217.027344 85.03125 C 217.539062 80.382812 222.410156 71.085938 223.566406 65.070312 C 224.464844 60.289062 224.847656 55.914062 224.464844 51.8125 C 224.078125 48.121094 223.054688 44.703125 221.515625 41.421875 C 220.105469 38.277344 218.179688 35.132812 215.875 32.535156 C 213.566406 29.9375 210.746094 27.613281 207.796875 25.972656 C 204.976562 24.332031 202.285156 23.375 198.695312 22.828125 C 193.695312 22.28125 186.257812 22.691406 180.234375 24.058594 C 174.207031 25.425781 167.027344 28.707031 162.414062 31.167969 C 159.207031 32.945312 157.414062 34.039062 154.851562 36.773438 C 151.003906 40.464844 144.980469 47.847656 142.925781 52.90625 C 141.390625 56.597656 141.390625 60.015625 141.515625 63.566406 C 141.644531 67.121094 142.285156 70.675781 144.082031 74.367188 C 146.515625 79.5625 151.386719 85.304688 157.15625 90.773438 C 164.976562 98.292969 182.796875 106.765625 188.695312 113.328125 C 191.773438 116.746094 194.464844 119.617188 194.207031 122.761719 C 193.824219 126.453125 189.207031 131.785156 185.105469 133.835938 C 180.363281 136.160156 172.796875 133.289062 166.515625 134.246094 C 159.851562 135.203125 152.671875 137.117188 146.261719 139.714844 C 140.105469 142.175781 134.339844 145.59375 128.953125 149.28125 C 123.441406 152.972656 118.441406 157.347656 113.3125 161.996094 C 108.058594 166.917969 103.183594 171.839844 97.800781 178.402344 C 91.007812 186.46875 81.519531 198.90625 76.261719 207.65625 C 72.671875 214.082031 70.492188 219.140625 68.3125 225.15625 C 66.261719 231.171875 64.726562 237.046875 63.699219 243.609375 C 62.546875 250.992188 62.160156 259.605469 62.546875 267.398438 C 62.929688 274.777344 64.339844 283.117188 65.75 288.996094 C 66.777344 293.097656 67.671875 295.558594 69.46875 299.386719 C 71.648438 304.445312 75.492188 311.828125 78.828125 316.203125 C 81.390625 319.480469 83.441406 321.257812 86.773438 323.855469 C 91.132812 327.273438 97.671875 331.101562 103.441406 334.246094 C 109.339844 337.390625 116.644531 340.671875 122.03125 342.449219 C 125.875 343.816406 128.3125 344.636719 132.542969 345.183594 C 138.570312 345.867188 148.824219 346.003906 154.722656 345.046875 C 158.695312 344.5 161.515625 343.40625 164.722656 342.039062 C 168.054688 340.398438 171.003906 338.621094 174.464844 335.886719 C 179.335938 332.058594 186.515625 324.675781 190.234375 320.027344 C 192.542969 317.019531 193.695312 315.382812 195.363281 311.828125 C 197.796875 306.632812 200.746094 299.25 202.414062 291.457031 C 204.464844 281.613281 205.617188 265.347656 205.363281 257.007812 C 205.105469 252.222656 204.59375 249.214844 203.308594 245.796875 C 202.15625 242.789062 200.363281 240.191406 198.183594 237.867188 C 196.003906 235.40625 192.925781 233.355469 190.105469 231.71875 C 187.414062 230.214844 184.464844 229.121094 181.644531 228.4375 C 178.695312 227.753906 175.492188 227.070312 172.671875 227.753906 C 169.976562 228.574219 167.285156 230.625 164.976562 232.808594 C 162.414062 235.269531 160.105469 238.824219 158.441406 242.105469 C 156.773438 245.25 155.363281 248.53125 154.59375 251.949219 C 153.824219 255.367188 155.105469 259.742188 153.695312 262.75 C 152.542969 265.484375 149.722656 268.765625 147.03125 269.3125 C 143.953125 269.859375 138.824219 266.167969 135.75 263.84375 C 133.054688 261.929688 131.644531 258.511719 129.082031 256.734375 C 126.644531 254.957031 123.570312 253.726562 120.75 253.316406 C 117.671875 252.90625 114.210938 253.316406 111.261719 254.136719 C 108.570312 254.957031 106.132812 256.324219 103.699219 257.964844 C 101.132812 259.605469 98.953125 263.023438 96.519531 263.980469 C 94.59375 264.9375 92.417969 265.347656 90.621094 264.664062 C 88.570312 263.84375 85.75 261.109375 84.980469 259.058594 C 84.210938 257.144531 84.46875 254.410156 85.109375 252.769531 C 85.492188 251.265625 87.417969 249.214844 87.417969 249.214844 " clip-rule="nonzero"/></clipPath><clipPath id="cd1867e21b"><path d="M 210.597656 115.042969 L 322 115.042969 L 322 357.777344 L 210.597656 357.777344 Z M 210.597656 115.042969 " clip-rule="nonzero"/></clipPath><clipPath id="062bd75aa6"><path d="M 223.695312 115.445312 C 244.71875 126.199219 254.589844 134.652344 261.640625 140.925781 C 267.796875 146.179688 273.820312 151.8125 277.921875 156.550781 C 280.871094 160.007812 281.769531 161.542969 284.71875 166.15625 C 291.640625 176.65625 311.128906 205.597656 316.769531 219.171875 C 319.84375 226.726562 320.484375 231.335938 321.382812 237.996094 C 322.152344 244.910156 321.894531 251.953125 321.511719 259.636719 C 321.125 268.089844 320.484375 278.71875 319.074219 286.785156 C 317.921875 293.445312 316.769531 298.949219 314.460938 304.839844 C 311.894531 311.242188 307.023438 318.925781 303.820312 323.410156 C 301.769531 326.355469 300.871094 327.636719 298.308594 330.195312 C 294.078125 334.167969 285.871094 340.3125 279.589844 344.027344 C 273.820312 347.484375 266.769531 350.429688 261.898438 352.09375 C 258.566406 353.246094 257.15625 353.375 253.308594 354.015625 C 245.230469 355.167969 221.898438 358.882812 216.003906 356.832031 C 213.695312 356.0625 212.796875 354.785156 212.027344 353.375 C 211.128906 351.839844 210.617188 349.917969 211.003906 348.125 C 211.515625 346.074219 213.695312 342.875 215.617188 341.722656 C 217.027344 340.824219 219.078125 340.570312 220.875 341.082031 C 222.925781 341.59375 225.875 344.027344 226.898438 345.949219 C 227.796875 347.484375 227.925781 349.535156 227.410156 351.199219 C 226.644531 353.246094 224.078125 356.191406 222.15625 357.089844 C 220.488281 357.855469 218.4375 357.730469 216.769531 357.214844 C 215.234375 356.703125 213.4375 355.425781 212.539062 354.144531 C 211.515625 352.734375 210.746094 350.8125 211.003906 349.019531 C 211.128906 346.84375 212.925781 343.898438 214.71875 342.234375 C 216.644531 340.570312 218.695312 340.058594 222.15625 339.289062 C 228.820312 337.753906 245.871094 338.519531 253.308594 337.113281 C 257.667969 336.214844 259.71875 335.574219 263.4375 333.78125 C 268.691406 331.347656 276.640625 326.226562 281.128906 322.898438 C 284.078125 320.71875 285.742188 319.566406 288.050781 316.75 C 291.640625 312.652344 296.511719 304.328125 298.820312 299.078125 C 300.488281 295.238281 301.128906 292.933594 302.023438 288.449219 C 303.433594 281.152344 304.460938 267.703125 304.84375 258.996094 C 305.230469 251.953125 305.613281 246.320312 304.84375 240.042969 C 303.949219 233.769531 302.921875 228.902344 299.71875 221.476562 C 294.078125 208.796875 277.539062 183.828125 269.078125 172.558594 C 264.207031 166.15625 261.640625 163.210938 256.386719 158.214844 C 249.589844 151.683594 238.566406 142.335938 230.875 137.46875 C 225.488281 133.882812 218.824219 132.21875 216.003906 130.042969 C 214.59375 129.019531 213.949219 128.25 213.4375 127.097656 C 212.796875 125.945312 212.285156 124.535156 212.414062 123.128906 C 212.539062 121.460938 213.4375 119.03125 214.59375 117.621094 C 215.359375 116.597656 216.515625 115.828125 217.796875 115.445312 C 219.464844 114.933594 223.695312 115.445312 223.695312 115.445312 " clip-rule="nonzero"/></clipPath></defs><g clip-path="url(#e1939a0686)"><g clip-path="url(#16b868a536)"><path fill="#e19062" d="M 51.996094 5.621094 L 256.988281 5.621094 L 256.988281 374.769531 L 51.996094 374.769531 Z M 51.996094 5.621094 " fill-opacity="1" fill-rule="nonzero"/></g></g><g clip-path="url(#71f7cc67d3)"><g clip-path="url(#702ed05b3c)"><path fill="#e19062" d="M 216.605469 115.941406 L 337.5 115.941406 L 337.5 368.117188 L 216.605469 368.117188 Z M 216.605469 115.941406 " fill-opacity="1" fill-rule="nonzero"/></g></g><g clip-path="url(#4763fbce77)"><g clip-path="url(#e9df6219e7)"><path fill="#f1bf9c" d="M 41.265625 0 L 246.257812 0 L 246.257812 369.148438 L 41.265625 369.148438 Z M 41.265625 0 " fill-opacity="1" fill-rule="nonzero"/></g></g><g clip-path="url(#cd1867e21b)"><g clip-path="url(#062bd75aa6)"><path fill="#f1bf9c" d="M 205.875 110.320312 L 326.769531 110.320312 L 326.769531 362.5 L 205.875 362.5 Z M 205.875 110.320312 " fill-opacity="1" fill-rule="nonzero"/></g></g></svg>